
<svg
    version="1.1"
    xmlns="http://www.w3.org/2000/svg"
    viewBox="0 0 740 190"
>
    <defs id="SvgjsDefs1697"></defs>
    <g id="SvgjsG1698" featurekey="root" fill="#ffffff"></g>
    <g id="SvgjsG1699" featurekey="container1" fill="#000000" transform="matrix(1,0,0,1,0,0)">
        <path xmlns="http://www.w3.org/2000/svg" fill-rule="evenodd" d=" M0,0 H190 V190 H0,0 z M2,2 H188 V188 H2,2 z M6,6 H184 V184 H6 z M8,8 H182 V182 H6,8 z "></path>
    </g>
    <g id="SvgjsG1700" featurekey="symbol1" fill="#000000" transform="matrix(0.875,0,0,0.875,60,60)">
        <g>
            <path d="M80,13c0-7.2-5.8-13-13-13c-3.7,0-7,1.6-9.4,4.1C52.3,1.5,46.3,0,40,0C17.9,0,0,17.9,0,40c0,6.3,1.5,12.3,4.1,17.6 C1.6,60,0,63.3,0,67c0,7.2,5.8,13,13,13c3.7,0,7.1-1.6,9.4-4.1C27.7,78.5,33.7,80,40,80c22.1,0,40-17.9,40-40 c0-6.3-1.5-12.3-4.1-17.6C78.4,20.1,80,16.7,80,13z M67,4c5,0,9,4,9,9s-4,9-9,9c-5,0-9-4-9-9S62,4,67,4z M13,76c-5,0-9-4-9-9 s4-9,9-9c5,0,9,4,9,9S18,76,13,76z M76,40c0,19.9-16.1,36-36,36c-5.5,0-10.6-1.2-15.3-3.4C25.5,70.9,26,69,26,67 c0-7.2-5.8-13-13-13c-2,0-3.9,0.5-5.6,1.3C5.2,50.6,4,45.5,4,40C4,20.1,20.1,4,40,4c5.5,0,10.6,1.2,15.3,3.4C54.5,9.1,54,11,54,13 c0,7.2,5.8,13,13,13c2,0,3.9-0.5,5.6-1.3C74.8,29.4,76,34.5,76,40z"></path>
            <path d="M40,25c-8.3,0-15,6.7-15,15c0,8.3,6.7,15,15,15c8.3,0,15-6.7,15-15C55,31.7,48.3,25,40,25z M40,51c-6.1,0-11-4.9-11-11 c0-6.1,4.9-11,11-11c6.1,0,11,4.9,11,11C51,46.1,46.1,51,40,51z"></path>
        </g>
    </g>
    <g id="SvgjsG1701" featurekey="text1" fill="#000000" transform="matrix(3.3333333333333335,0,0,3.3333333333333335,205.6666644414266,31.666666666666664)">
        <path d="M6.36 10 c2.5 0 3.92 1.42 3.92 4 l0 1.08 c0 2.58 -1.42 4 -3.92 4 l-3.74 0 l0 4.62 c0 0.2 -0.1 0.3 -0.3 0.3 l-0.72 0 c-0.2 0 -0.3 -0.1 -0.3 -0.3 l0 -13.4 c0 -0.2 0.1 -0.3 0.3 -0.3 l0.72 0 l4.04 0 z M8.96 15.08 l0 -1.08 c0 -2 -0.78 -2.78 -2.6 -2.78 l-3.74 0 l0 6.64 l3.74 0 c1.82 0 2.6 -0.78 2.6 -2.78 z M19.740000000000002 23.82 c0.02 0.08 0.04 0.18 -0.06 0.18 l-0.94 0 c-0.22 0 -0.32 -0.2 -0.32 -0.48 l0 -1.1 c-0.58 0.96 -1.44 1.68 -2.82 1.68 l-0.84 0 c-1.82 0 -2.98 -1.04 -2.98 -3.02 c0 -2 1.14 -2.88 2.94 -2.88 l3.7 0 l0 -0.68 c0 -1.88 -0.48 -2.4 -2.2 -2.4 l-0.42 0 c-1.06 0 -1.78 0.18 -2.42 0.52 c-0.2 0.1 -0.4 0.12 -0.48 -0.06 l-0.26 -0.56 c-0.06 -0.14 -0.06 -0.24 0.14 -0.36 c0.82 -0.52 1.92 -0.74 3.02 -0.74 l0.42 0 c2.48 0 3.48 1.14 3.48 3.62 l0 5.98 c0 0.1 0.02 0.22 0.04 0.3 z M15.66 22.9 c1.5 0 2.36 -0.8 2.76 -1.92 l0 -1.68 l-3.66 0 c-1.08 0 -1.7 0.42 -1.7 1.78 c0 1.34 0.62 1.82 1.7 1.82 l0.9 0 z M29.82 14 c0.22 0 0.24 0.16 0.18 0.32 l-5.26 13.34 c-0.12 0.28 -0.28 0.34 -0.42 0.34 l-0.68 0 c-0.24 0 -0.28 -0.16 -0.2 -0.36 l1.6 -4.08 l-3.66 -9.24 c-0.06 -0.16 -0.04 -0.32 0.18 -0.32 l0.78 0 c0.18 0 0.24 0.08 0.34 0.32 l3 7.64 l3.02 -7.64 c0.1 -0.24 0.16 -0.32 0.34 -0.32 l0.78 0 z M42.44 13.92 c2.32 0 3.12 1.26 3.12 3.54 l0 6.24 c0 0.2 -0.1 0.3 -0.3 0.3 l-0.68 0 c-0.2 0 -0.3 -0.1 -0.3 -0.3 l0 -6.24 c0 -1.56 -0.42 -2.34 -1.98 -2.34 l-0.32 0 c-1.52 0 -2.4 0.9 -2.7 1.42 l0 7.16 c0 0.2 -0.1 0.3 -0.3 0.3 l-0.68 0 c-0.2 0 -0.3 -0.1 -0.3 -0.3 l0 -6.24 c0 -1.56 -0.4 -2.34 -1.98 -2.34 l-0.32 0 c-1.52 0 -2.4 0.9 -2.7 1.42 l0 7.16 c0 0.2 -0.1 0.3 -0.3 0.3 l-0.68 0 c-0.2 0 -0.3 -0.1 -0.3 -0.3 l0 -9.4 c0 -0.2 0.1 -0.3 0.3 -0.3 l0.68 0 c0.2 0 0.3 0.1 0.3 0.3 l0 1.2 c0.68 -1.02 1.74 -1.58 3 -1.58 l0.16 0 c1.68 0 2.56 0.66 2.92 1.88 l0.2 -0.3 c0.68 -1.02 1.74 -1.58 3 -1.58 l0.16 0 z M51.980000000000004 13.92 c1.76 0 3.46 1.3 3.46 3.62 l0 1.36 c0 0.38 -0.24 0.62 -0.64 0.62 l-5.82 0 l0 1.12 c0 1.44 0.82 2.26 2.28 2.26 l0.72 0 c1.34 0 1.7 -0.5 2.28 -1.18 c0.12 -0.16 0.22 -0.2 0.42 -0.06 l0.38 0.28 c0.2 0.14 0.2 0.26 0.08 0.42 c-0.72 0.88 -1.42 1.74 -3.16 1.74 l-0.72 0 c-2.14 0 -3.6 -1.4 -3.6 -3.6 l0 -2.94 c0 -2.32 1.46 -3.64 3.6 -3.64 l0.72 0 z M54.14000000000001 18.42 l0 -0.9 c0 -1.62 -0.92 -2.4 -2.16 -2.4 l-0.72 0 c-1.46 0 -2.28 0.78 -2.28 2.4 l0 0.9 l5.16 0 z M61.980000000000004 13.92 c2.32 0 3.12 1.26 3.12 3.54 l0 6.24 c0 0.2 -0.1 0.3 -0.3 0.3 l-0.68 0 c-0.2 0 -0.3 -0.1 -0.3 -0.3 l0 -6.24 c0 -1.56 -0.4 -2.34 -1.98 -2.34 l-0.32 0 c-1.52 0 -2.4 0.9 -2.7 1.42 l0 7.16 c0 0.2 -0.1 0.3 -0.3 0.3 l-0.68 0 c-0.2 0 -0.3 -0.1 -0.3 -0.3 l0 -9.4 c0 -0.2 0.1 -0.3 0.3 -0.3 l0.68 0 c0.2 0 0.3 0.1 0.3 0.3 l0 1.2 c0.68 -1.02 1.74 -1.58 3 -1.58 l0.16 0 z  M71.26 15.2 l-1.62 0 l0 5.7 c0 1.38 0.36 1.92 1.62 1.96 c0.2 0 0.28 0.14 0.28 0.32 l-0.02 0.56 c0 0.18 -0.12 0.3 -0.34 0.3 c-2.12 -0.04 -2.82 -1.06 -2.82 -3.14 l0 -5.7 l-1.06 0 c-0.2 0 -0.3 -0.1 -0.3 -0.3 l0 -0.58 c0 -0.22 0.1 -0.32 0.3 -0.32 l1.06 0 l0 -1.2 c0 -0.2 0.1 -0.3 0.3 -0.3 l0.68 0 c0.2 0 0.3 0.1 0.3 0.3 l0 1.2 l1.6 0 c0.22 0 0.32 0.1 0.32 0.3 l0 0.6 c0 0.2 -0.1 0.3 -0.3 0.3 z  M84.84000000000002 10 c2.48 0 3.9 1.32 3.9 3.98 l0 6.04 c0 2.66 -1.42 3.98 -3.9 3.98 l-4.4 0 l-0.48 0 c-0.2 0 -0.3 -0.1 -0.3 -0.3 l0 -13.4 c0 -0.2 0.1 -0.3 0.3 -0.3 l0.72 0 l4.16 0 z M87.42000000000002 20.02 l0 -6.04 c0 -1.98 -0.78 -2.76 -2.58 -2.76 l-3.86 0 l0 11.56 l3.86 0 c1.8 0 2.58 -0.78 2.58 -2.76 z M98.60000000000002 14 c0.22 0 0.24 0.16 0.18 0.32 l-5.26 13.34 c-0.12 0.28 -0.28 0.34 -0.42 0.34 l-0.68 0 c-0.24 0 -0.28 -0.16 -0.2 -0.36 l1.6 -4.08 l-3.66 -9.24 c-0.06 -0.16 -0.04 -0.32 0.18 -0.32 l0.78 0 c0.18 0 0.24 0.08 0.34 0.32 l3 7.64 l3.02 -7.64 c0.1 -0.24 0.16 -0.32 0.34 -0.32 l0.78 0 z M104.94000000000001 13.92 c2.32 0 3.12 1.26 3.12 3.54 l0 6.24 c0 0.2 -0.1 0.3 -0.3 0.3 l-0.68 0 c-0.2 0 -0.3 -0.1 -0.3 -0.3 l0 -6.24 c0 -1.56 -0.4 -2.34 -1.98 -2.34 l-0.32 0 c-1.52 0 -2.4 0.9 -2.7 1.42 l0 7.16 c0 0.2 -0.1 0.3 -0.3 0.3 l-0.68 0 c-0.2 0 -0.3 -0.1 -0.3 -0.3 l0 -9.4 c0 -0.2 0.1 -0.3 0.3 -0.3 l0.68 0 c0.2 0 0.3 0.1 0.3 0.3 l0 1.2 c0.68 -1.02 1.74 -1.58 3 -1.58 l0.16 0 z  M118.02000000000002 23.82 c0.02 0.08 0.04 0.18 -0.06 0.18 l-0.94 0 c-0.22 0 -0.32 -0.2 -0.32 -0.48 l0 -1.1 c-0.58 0.96 -1.44 1.68 -2.82 1.68 l-0.84 0 c-1.82 0 -2.98 -1.04 -2.98 -3.02 c0 -2 1.14 -2.88 2.94 -2.88 l3.7 0 l0 -0.68 c0 -1.88 -0.48 -2.4 -2.2 -2.4 l-0.42 0 c-1.06 0 -1.78 0.18 -2.42 0.52 c-0.2 0.1 -0.4 0.12 -0.48 -0.06 l-0.26 -0.56 c-0.06 -0.14 -0.06 -0.24 0.14 -0.36 c0.82 -0.52 1.92 -0.74 3.02 -0.74 l0.42 0 c2.48 0 3.48 1.14 3.48 3.62 l0 5.98 c0 0.1 0.02 0.22 0.04 0.3 z M113.94000000000003 22.9 c1.5 0 2.36 -0.8 2.76 -1.92 l0 -1.68 l-3.66 0 c-1.08 0 -1.7 0.42 -1.7 1.78 c0 1.34 0.62 1.82 1.7 1.82 l0.9 0 z M131.06 13.92 c2.32 0 3.12 1.26 3.12 3.54 l0 6.24 c0 0.2 -0.1 0.3 -0.3 0.3 l-0.68 0 c-0.2 0 -0.3 -0.1 -0.3 -0.3 l0 -6.24 c0 -1.56 -0.42 -2.34 -1.98 -2.34 l-0.32 0 c-1.52 0 -2.4 0.9 -2.7 1.42 l0 7.16 c0 0.2 -0.1 0.3 -0.3 0.3 l-0.68 0 c-0.2 0 -0.3 -0.1 -0.3 -0.3 l0 -6.24 c0 -1.56 -0.4 -2.34 -1.98 -2.34 l-0.32 0 c-1.52 0 -2.4 0.9 -2.7 1.42 l0 7.16 c0 0.2 -0.1 0.3 -0.3 0.3 l-0.68 0 c-0.2 0 -0.3 -0.1 -0.3 -0.3 l0 -9.4 c0 -0.2 0.1 -0.3 0.3 -0.3 l0.68 0 c0.2 0 0.3 0.1 0.3 0.3 l0 1.2 c0.68 -1.02 1.74 -1.58 3 -1.58 l0.16 0 c1.68 0 2.56 0.66 2.92 1.88 l0.2 -0.3 c0.68 -1.02 1.74 -1.58 3 -1.58 l0.16 0 z M136.82000000000002 10.3 c0 -0.2 0.1 -0.3 0.3 -0.3 l0.62 0 c0.2 0 0.3 0.1 0.3 0.3 l0 0.7 c0 0.2 -0.1 0.3 -0.3 0.3 l-0.62 0 c-0.2 0 -0.3 -0.1 -0.3 -0.3 l0 -0.7 z M136.78000000000003 14.3 c0 -0.2 0.1 -0.3 0.3 -0.3 l0.68 0 c0.2 0 0.3 0.1 0.3 0.3 l0 9.4 c0 0.2 -0.1 0.3 -0.3 0.3 l-0.68 0 c-0.2 0 -0.3 -0.1 -0.3 -0.3 l0 -9.4 z M147.06000000000003 17.1 c-0.18 0 -0.28 -0.1 -0.32 -0.3 c-0.22 -1.14 -0.96 -1.66 -2.04 -1.66 l-0.74 0 c-1.46 0 -2.28 0.78 -2.28 2.38 l0 3.12 c0 1.44 0.82 2.26 2.28 2.26 l0.72 0 c1.3 0 1.68 -0.52 2.26 -1.22 c0.14 -0.16 0.26 -0.16 0.44 -0.04 l0.44 0.32 c0.18 0.12 0.18 0.26 0.06 0.42 c-0.72 0.88 -1.36 1.72 -3.2 1.72 l-0.72 0 c-2.14 0 -3.6 -1.4 -3.6 -3.6 l0 -2.94 c0 -2.3 1.46 -3.62 3.6 -3.62 l0.74 0 c1.76 0 3.04 1.06 3.34 2.82 c0.02 0.22 -0.08 0.34 -0.28 0.34 l-0.7 0 z M153.44000000000005 18.34 c2.22 0.26 3.82 0.6 3.82 2.86 c0 2.08 -1.5 2.9 -3.44 2.9 l-0.78 0 c-1.9 0 -3.08 -0.9 -3.36 -2.52 c-0.04 -0.18 0.06 -0.3 0.26 -0.3 l0.74 0 c0.18 0 0.3 0.1 0.34 0.28 c0.24 0.92 0.82 1.34 2.02 1.34 l0.8 0 c1.26 0 2.14 -0.4 2.14 -1.7 c0 -1.34 -1.02 -1.54 -2.54 -1.7 c-2.3 -0.22 -3.62 -0.68 -3.62 -2.84 c0 -1.94 1.3 -2.72 3.28 -2.72 l0.62 0 c1.9 0 3.18 0.9 3.26 2.7 c0 0.2 -0.06 0.32 -0.28 0.32 l-0.68 0 c-0.2 0 -0.32 -0.1 -0.36 -0.32 c-0.1 -1.04 -0.74 -1.54 -1.98 -1.54 l-0.54 0 c-1.28 0 -2.06 0.4 -2.06 1.56 c0 1.24 0.84 1.52 2.36 1.68 z"></path>
    </g>
</svg>