
<svg
    version="1.1"
    xmlns="http://www.w3.org/2000/svg"
    viewBox="0 0 190 190"
    preserveAspectRatio="xMinYMin meet"
>
    <defs id="SvgjsDefs1697"></defs>
    <g id="SvgjsG1698" featurekey="root" fill="#ffffff"></g>
    <g id="SvgjsG1699" featurekey="container1" fill="#ffffff" transform="matrix(1,0,0,1,0,0)">
        <path fill-rule="evenodd" d=" M0,0 H190 V190 H0,0 z M2,2 H188 V188 H2,2 z M6,6 H184 V184 H6 z M8,8 H182 V182 H6,8 z "></path>
    </g>
    <g id="SvgjsG1700" featurekey="symbol1" fill="#ffffff" transform="matrix(0.875,0,0,0.875,60,60)">
        <g>
            <path d="M80,13c0-7.2-5.8-13-13-13c-3.7,0-7,1.6-9.4,4.1C52.3,1.5,46.3,0,40,0C17.9,0,0,17.9,0,40c0,6.3,1.5,12.3,4.1,17.6 C1.6,60,0,63.3,0,67c0,7.2,5.8,13,13,13c3.7,0,7.1-1.6,9.4-4.1C27.7,78.5,33.7,80,40,80c22.1,0,40-17.9,40-40 c0-6.3-1.5-12.3-4.1-17.6C78.4,20.1,80,16.7,80,13z M67,4c5,0,9,4,9,9s-4,9-9,9c-5,0-9-4-9-9S62,4,67,4z M13,76c-5,0-9-4-9-9 s4-9,9-9c5,0,9,4,9,9S18,76,13,76z M76,40c0,19.9-16.1,36-36,36c-5.5,0-10.6-1.2-15.3-3.4C25.5,70.9,26,69,26,67 c0-7.2-5.8-13-13-13c-2,0-3.9,0.5-5.6,1.3C5.2,50.6,4,45.5,4,40C4,20.1,20.1,4,40,4c5.5,0,10.6,1.2,15.3,3.4C54.5,9.1,54,11,54,13 c0,7.2,5.8,13,13,13c2,0,3.9-0.5,5.6-1.3C74.8,29.4,76,34.5,76,40z"></path>
            <path d="M40,25c-8.3,0-15,6.7-15,15c0,8.3,6.7,15,15,15c8.3,0,15-6.7,15-15C55,31.7,48.3,25,40,25z M40,51c-6.1,0-11-4.9-11-11 c0-6.1,4.9-11,11-11c6.1,0,11,4.9,11,11C51,46.1,46.1,51,40,51z"></path>
        </g>
    </g>
</svg>